<?xml version="1.0" encoding="utf-8"?>
<!-- Generator: Adobe Illustrator 25.4.1, SVG Export Plug-In . SVG Version: 6.00 Build 0)  -->
<svg version="1.1" id="Calque_1" xmlns="http://www.w3.org/2000/svg" xmlns:xlink="http://www.w3.org/1999/xlink" x="0px" y="0px"
	 viewBox="0 0 23.8 23.8" style="enable-background:new 0 0 23.8 23.8;" xml:space="preserve">
<style type="text/css">
	.st0{fill:#FFFFFF;}
</style>
<g id="Calque_2_00000091733810042977774680000004686461920165516173_">
	<g id="Capa_1">
		<rect x="0.5" y="7.9" class="st0" width="4.9" height="15.9"/>
		<path class="st0" d="M2.9,5.8c1.6,0,2.9-1.3,2.9-2.9c0,0,0,0,0,0c0-1.6-1.3-2.9-2.9-2.9S0,1.4,0,3C0,4.6,1.3,5.8,2.9,5.8z"/>
		<path class="st0" d="M13.2,15.5c0-2.2,1-3.6,3-3.6c1.8,0,2.7,1.3,2.7,3.6v8.3h4.9v-10c0-4.2-2.4-6.3-5.8-6.3c-1.9,0-3.8,1-4.8,2.6
			V7.9H8.5v15.9h4.7V15.5z"/>
	</g>
</g>
</svg>
