<?xml version="1.0" encoding="utf-8"?>
<!-- Generator: Adobe Illustrator 25.4.1, SVG Export Plug-In . SVG Version: 6.00 Build 0)  -->
<svg version="1.1" id="Calque_1" xmlns="http://www.w3.org/2000/svg" xmlns:xlink="http://www.w3.org/1999/xlink" x="0px" y="0px"
	 viewBox="0 0 25.3 20.5" style="enable-background:new 0 0 25.3 20.5;" xml:space="preserve">
<style type="text/css">
	.st0{fill:#FFFFFF;}
</style>
<g id="Calque_2_00000048466564177719078640000007995929349563828894_">
	<g id="Capa_1">
		<path class="st0" d="M0,18.2c2.4,1.5,5.2,2.3,8,2.3c8.1,0,14.7-6.5,14.7-14.6c0-0.3,0-0.5,0-0.8c1-0.7,1.9-1.6,2.6-2.7
			c-1,0.4-2,0.7-3,0.8c1.1-0.6,1.9-1.7,2.3-2.9c-1,0.6-2.1,1-3.3,1.3c-2-2.1-5.2-2.2-7.3-0.2c-1.4,1.3-1.9,3.2-1.5,5
			C8.3,6.2,4.4,4.2,1.8,1C0.4,3.4,1.1,6.4,3.4,7.9C2.5,7.9,1.7,7.6,1,7.2c0,2.5,1.7,4.7,4.2,5.2c-0.8,0.2-1.6,0.2-2.3,0.1
			c0.7,2.1,2.6,3.6,4.9,3.6C5.5,17.8,2.7,18.5,0,18.2z"/>
	</g>
</g>
</svg>
